<svg width="263" height="384" viewBox="0 0 263 384" fill="none" xmlns="http://www.w3.org/2000/svg">
<path d="M132.708 4.66661C131.375 7.19995 127.641 13.8666 124.441 19.3333C121.241 24.7999 116.708 32.6666 114.441 36.6666C112.175 40.6666 107.908 47.8666 105.108 52.6666C102.308 57.4666 98.0413 64.6666 95.7747 68.6666C93.508 72.6666 89.2413 79.8666 86.4413 84.6666C83.6413 89.4666 79.508 96.6666 77.2413 100.667C72.5747 109.067 70.4413 112.933 63.6413 124C60.9747 128.4 57.7747 134.267 56.4413 136.933C55.2413 139.733 53.6413 142 52.9747 142C52.308 142 51.7747 142.667 51.7747 143.467C51.7747 144.8 46.0413 155.2 30.708 181.333C28.0413 185.733 23.908 192.933 21.3747 197.333C18.9747 201.733 14.5747 209.2 11.7747 214C4.17467 226.8 -0.491997 235.6 0.0413366 236.133C0.57467 236.533 93.908 240.667 104.575 240.667H110.041L112.841 218.933C114.441 207.067 117.508 182.933 119.775 165.333C121.908 147.733 124.308 130.933 125.108 128C125.775 125.067 127.908 100.8 129.775 74C131.641 47.1999 133.775 22.2666 134.575 18.6666C135.375 14.9333 135.775 9.33328 135.508 5.99995L135.108 -5.32418e-05L132.708 4.66661Z" fill="#0291F7"/>
<path d="M147.108 143.2C146.575 144.133 144.441 159.733 142.308 177.733C140.175 195.867 138.041 211.6 137.641 212.667C137.241 213.733 135.641 224 134.175 235.333C130.708 262.533 127.508 386.8 130.308 383.867C130.975 383.2 134.708 376.933 138.441 370C142.308 363.067 146.975 354.667 148.841 351.333C150.708 348 154.308 341.467 156.841 336.667C159.508 331.867 161.908 327.733 162.308 327.333C162.708 326.933 164.841 323.333 166.841 319.333C168.841 315.333 174.975 304.133 180.441 294.667C185.775 285.067 191.775 274.667 193.508 271.333C196.975 264.933 207.508 246 209.775 242.267C211.108 240 224.175 216.533 230.575 204.933C232.441 201.467 237.108 192.933 241.108 186C244.975 179.067 249.508 170.933 251.108 168C252.708 165.067 255.908 159.333 258.308 155.333C260.575 151.333 262.441 147.6 262.441 147.2C262.441 146.667 245.775 145.867 225.508 145.333C205.108 144.8 186.708 144.267 184.441 144C182.308 143.733 173.241 143.067 164.308 142.533C152.175 141.867 147.908 142 147.108 143.2Z" fill="#0291F7"/>
</svg>
