<?xml version="1.0" standalone="no"?>
<!DOCTYPE svg PUBLIC "-//W3C//DTD SVG 20010904//EN"
 "http://www.w3.org/TR/2001/REC-SVG-20010904/DTD/svg10.dtd">
<svg version="1.0" xmlns="http://www.w3.org/2000/svg"
 width="32.000000pt" height="32.000000pt" viewBox="0 0 32.000000 32.000000"
 preserveAspectRatio="xMidYMid meet">

<g transform="translate(0.000000,32.000000) scale(0.100000,-0.100000)"
fill="#000000" stroke="none">
<path d="M90 240 c-19 -10 -48 -32 -64 -49 l-30 -31 30 -31 c37 -39 95 -69
134 -69 39 0 97 30 134 69 l30 31 -30 31 c-63 66 -138 85 -204 49z m125 -16
c18 -8 43 -27 56 -41 l24 -25 -39 -33 c-21 -19 -51 -37 -67 -40 -44 -10 -83 3
-125 40 l-39 33 24 25 c28 31 78 56 109 57 13 0 39 -7 57 -16z"/>
<path d="M117 202 c-22 -24 -21 -65 1 -85 40 -36 102 -9 102 45 0 51 -69 78
-103 40z m73 -17 c26 -32 -13 -81 -47 -59 -23 14 -28 41 -13 59 16 19 44 19
60 0z"/>
</g>
</svg>
